<svg width="29" height="23" viewBox="0 0 29 23" fill="none" xmlns="http://www.w3.org/2000/svg">
<path d="M6.59094 22.5159V10.9197L3.11603 7.62961L0 5.80383V20.4695C0 21.6018 0.886428 22.5159 1.97733 22.5159H6.59094Z" fill="#4285F4"/>
<path d="M22.4097 22.5161H27.0233C28.1175 22.5161 29.0006 21.5985 29.0006 20.4696V5.80408L25.4712 7.89529L22.4097 10.9198V22.5161Z" fill="#34A853"/>
<path d="M6.591 10.9198L6.11816 6.38884L6.591 2.05225L14.5001 8.19141L22.4092 2.05225L22.9382 6.15471L22.4092 10.9198L14.5001 17.059L6.591 10.9198Z" fill="#EA4335"/>
<path d="M22.4097 2.05213V10.9197L29.0006 5.80382V3.07529C29.0006 0.544661 26.2094 -0.897978 24.2553 0.619695L22.4097 2.05213Z" fill="#FBBC04"/>
<path d="M0 5.80387L3.0313 8.15688L6.59094 10.9198V2.05219L4.74536 0.619749C2.78786 -0.898042 0 0.544715 0 3.07522V5.80375V5.80387Z" fill="#C5221F"/>
</svg>
