<svg width="592" height="547" viewBox="0 0 592 547" fill="none" xmlns="http://www.w3.org/2000/svg">
<circle cx="300.428" cy="242.031" r="242.031" fill="#3A18C2"/>
<circle cx="38.6969" cy="50.6578" r="38.6969" fill="#3A18C2"/>
<circle cx="569.547" cy="262.787" r="15.127" fill="#3A18C2"/>
<circle cx="584.323" cy="129.107" r="7.38758" fill="#977DF4"/>
<circle cx="31.3085" cy="416.167" r="7.38758" fill="#977DF4"/>
<path d="M306.489 546.293C325.901 546.378 345.611 546.25 364.168 540.649C365.45 540.264 366.733 539.837 367.717 538.982C368.743 538.127 369.384 536.758 369.042 535.476C368.443 533.381 365.707 532.91 363.527 532.782C333.255 531.371 302.428 525.599 273.054 532.953C270.446 533.594 267.709 534.449 265.742 536.288C263.818 538.126 262.45 542.146 264.887 544.112C267.41 546.122 274.721 545.395 277.843 545.566C287.42 546.165 296.955 546.25 306.489 546.293Z" fill="url(#paint0_linear_316_592)"/>
<path opacity="0.22" d="M306.489 546.293C325.901 546.378 345.611 546.25 364.168 540.649C365.45 540.264 366.733 539.837 367.717 538.982C368.743 538.127 369.384 536.758 369.042 535.476C368.443 533.381 365.707 532.91 363.527 532.782C333.255 531.371 302.428 525.599 273.054 532.953C270.446 533.594 267.709 534.449 265.742 536.288C263.818 538.126 262.45 542.146 264.887 544.112C267.41 546.122 274.721 545.395 277.843 545.566C287.42 546.165 296.955 546.25 306.489 546.293Z" fill="url(#paint1_linear_316_592)"/>
<path d="M342.704 340.293C342.875 339.053 343.047 337.855 343.175 336.616C343.731 332.254 344.158 327.38 341.379 324.002C340.438 322.848 329.878 323.532 327.953 323.318C323.977 322.891 320.77 321.865 317.093 320.753C309.953 318.572 300.504 318.23 293.15 319.684C286.608 321.009 280.751 321.608 274.081 322.292C271.857 322.506 269.676 323.104 267.496 323.703C259.714 325.884 260.185 326.055 261.382 334.007C262.408 340.763 263.263 347.561 263.904 354.36C265.144 367.358 264.075 380.868 265.786 393.738C267.41 405.966 268.394 418.323 269.335 430.765C271.558 461.037 273.952 491.265 277.116 521.451C275.107 523.461 273.268 525.77 271.601 528.164C269.078 531.67 266.598 535.946 267.24 540.478C271.815 542.53 276.817 539.623 281.05 536.758L286.651 532.996C299.349 524.444 294.219 502.083 294.689 486.605C295.33 466.253 295.972 445.858 296.656 425.506C296.784 421.273 294.817 376.678 300.718 376.935C304.181 377.106 305.677 438.889 305.891 445.473C306.49 462.661 306.661 479.85 306.49 497.08C306.319 511.746 301.573 527.566 313.972 535.903L319.573 539.666C323.806 542.53 328.809 545.438 333.384 543.385C334.025 538.853 331.545 534.578 329.022 531.072C327.312 528.677 325.516 526.368 323.507 524.359C322.566 523.461 324.832 511.275 325.004 509.48C325.517 503.921 326.03 498.32 326.5 492.762C327.612 479.935 328.595 467.065 329.45 454.196C331.887 416.014 337.659 378.132 342.704 340.293Z" fill="#999999"/>
<path d="M306.06 153.148C310.421 153.105 314.397 150.582 317.433 147.461C328.721 135.789 328.379 117.489 327.267 101.327C327.139 99.6167 327.011 97.8209 326.027 96.3672C324.531 94.1866 321.58 93.588 318.972 93.2887C307.727 93.2887 296.611 93.8018 285.28 94.3576C284.34 94.4004 283.313 94.4859 282.544 95.0417C281.731 95.6831 281.432 96.752 281.261 97.7354C280.449 102.396 281.988 107.27 281.902 112.016C281.817 116.89 282.031 121.807 282.886 126.639C284.553 136.002 288.829 144.725 296.996 150.026C299.732 151.822 302.81 153.19 306.06 153.148Z" fill="#F2E7D6"/>
<path d="M352.67 210.698C353.525 210.527 354.38 210.57 355.235 210.313C356.09 210.057 356.817 209.544 357.544 209.03C364.47 204.199 372.337 200.094 380.76 199.838C381.744 199.795 382.77 199.838 383.668 200.265C384.822 200.821 385.549 202.018 385.849 203.258C386.533 206.08 385.079 209.03 382.941 210.997C380.803 212.964 378.067 214.076 375.373 215.145C370.413 217.154 365.411 219.164 360.451 221.173C356.603 222.712 352.541 224.294 348.48 223.61C347.496 221.173 346.598 218.522 347.197 215.957C347.795 213.306 350.062 211.168 352.67 210.698Z" fill="#F2E7D6"/>
<path d="M349.162 231.435C355.362 229.511 361.604 227.715 367.89 226.09C364.854 218.223 361.861 210.313 358.825 202.446C355.448 203.942 352.027 205.439 348.649 206.935C348.564 204.413 348.479 201.89 348.35 199.453C347.837 187.994 347.238 176.193 342.792 165.846C339.243 157.594 338.516 155.585 331.419 149.684C321.2 155.328 295.033 157.423 286.311 149.684C279.085 153.703 279.341 149.642 273.911 158.15C260.699 178.802 259.118 214.717 257.065 230.323C254.115 252.941 240.518 316.007 255.184 334.478C262.709 343.969 320.73 342.088 355.833 331.527C353.951 290.396 349.761 278.809 349.162 231.435Z" fill="#4A4E31"/>
<path d="M312.09 166.317C295.159 165.334 278.099 164.393 261.253 166.445C259.158 166.702 257.533 168.497 257.404 170.635C256.635 187.353 256.763 204.114 257.746 220.831C257.875 223.268 260.056 225.107 262.493 224.893C286.949 222.841 312.346 222.755 336.888 222.798C339.326 222.798 341.292 220.831 341.25 218.394C341.079 203.429 340.138 186.925 339.967 171.961C339.925 169.652 338.171 167.771 335.862 167.642L312.09 166.317Z" fill="#EDEDED"/>
<path d="M255.183 150.668C254.499 146.991 253.858 143.228 252.618 139.68C252.019 138.055 249.497 138.782 250.01 140.492C251.121 144.083 252.533 147.547 253.431 151.224C253.687 152.378 255.397 151.78 255.183 150.668Z" fill="#666666"/>
<path d="M249.967 153.661C247.273 152.122 244.451 151.096 241.33 150.796C239.577 150.625 238.892 153.191 240.688 153.49C243.596 153.96 246.46 154.602 249.197 155.585C250.351 156.013 250.95 154.217 249.967 153.661Z" fill="#666666"/>
<path d="M249.581 160.074C245.562 159.818 241.243 160.63 237.267 161.314C235.557 161.613 235.557 164.264 237.395 164.051C241.457 163.623 245.989 163.281 249.923 161.955C250.992 161.613 250.65 160.16 249.581 160.074Z" fill="#666666"/>
<path d="M263.351 231.606C261.042 234.043 257.878 236.694 254.714 235.539C253.688 235.155 252.833 234.385 252.192 233.53C249.755 230.238 250.268 225.577 251.679 221.729C254.073 215.273 258.69 209.928 263.18 204.755C266.9 200.479 271.903 195.776 277.375 197.272C278.401 197.572 279.47 198.128 279.983 199.068C280.454 199.923 280.454 200.992 280.368 202.018C279.427 213.52 271.347 223.14 263.351 231.606Z" fill="#F2E7D6"/>
<path d="M242.142 244.689C241.33 243.578 241.415 242.038 241.543 240.627C242.869 229.211 247.358 218.18 254.413 209.116C258.817 215.658 263.905 221.729 269.634 227.116C263.392 233.658 259.886 237.079 254.156 242.894C252.959 244.091 248.384 245.074 246.759 245.673C245.22 246.314 243.168 246.057 242.142 244.689Z" fill="#4A4E31"/>
<path d="M296.53 95.2129C293.879 95.8115 291.699 97.6928 290.288 99.9161C286.91 105.175 287.423 111.717 286.097 117.703C285.157 121.936 283.276 125.997 280.582 129.503C279.214 126.895 278.23 124.116 277.333 121.337C274.682 112.957 272.929 104.149 274.126 95.4694C275.323 86.7899 279.812 78.2385 287.551 73.3643C290.074 71.7823 293.11 70.5852 296.06 71.2693C299.993 72.1672 302.26 76.0153 303.628 79.564C305.253 83.7114 306.321 88.329 305.509 92.733C305.124 94.9135 304.782 97.0514 302.687 96.8377C300.421 96.5811 299.48 94.5715 296.53 95.2129Z" fill="#F4D787"/>
<path d="M322.609 124.843C321.411 122.064 321.069 119.028 320.428 116.078C319.53 112.059 318.033 108.125 316.024 104.534C314.955 102.61 313.673 100.728 311.919 99.403C310.166 98.0776 307.815 97.3507 305.677 97.9493C304.95 98.1631 304.266 98.5052 303.539 98.3341C302.599 98.1203 302.043 97.1797 301.572 96.3246C300.332 93.973 299.092 91.5359 298.879 88.885C298.75 87.2603 299.05 85.6355 299.477 84.0535C301.23 77.5118 306.104 71.2694 312.774 70.1577C318.461 69.2598 324.233 72.2955 327.868 76.7422C331.502 81.1889 333.341 86.8328 334.623 92.4339C335.35 95.6833 335.948 99.0182 335.82 102.353C335.521 108.98 332.485 115.009 330.69 121.252C330.305 122.62 329.792 129.888 329.022 130.316C326.799 131.641 323.25 126.297 322.609 124.843Z" fill="#F4D787"/>
<path d="M305.722 191.415C305.636 191.073 305.337 190.731 304.952 190.645C303.028 190.26 300.591 191.073 298.71 191.586C296.316 192.184 294.049 193.04 291.783 193.98C290.971 194.322 291.142 195.519 291.783 195.904C295.247 198.17 298.924 200.094 302.601 202.018C302.772 202.104 302.943 202.104 303.071 202.018C302.9 203.387 304.995 203.942 305.209 202.574C305.722 199.239 306.62 194.75 305.722 191.415ZM303.712 196.717C303.627 198.17 303.456 199.624 303.242 201.035C300.334 199.239 297.512 197.23 294.733 195.22C296.101 194.707 297.512 194.194 298.923 193.809C300.249 193.424 302.258 192.74 303.798 192.74C303.969 194.023 303.755 195.562 303.712 196.717Z" fill="white"/>
<defs>
<linearGradient id="paint0_linear_316_592" x1="263.619" y1="537.811" x2="369.149" y2="537.811" gradientUnits="userSpaceOnUse">
<stop stop-color="white"/>
<stop offset="1"/>
</linearGradient>
<linearGradient id="paint1_linear_316_592" x1="263.619" y1="537.811" x2="369.149" y2="537.811" gradientUnits="userSpaceOnUse">
<stop/>
<stop offset="1"/>
</linearGradient>
</defs>
</svg>
